<svg width="20" height="9" viewBox="0 0 20 9" fill="none" xmlns="http://www.w3.org/2000/svg">
<path d="M0.05 8V1H2.78C3.39333 1 3.91667 1.09667 4.35 1.29C4.78333 1.48333 5.11667 1.76333 5.35 2.13C5.58333 2.49667 5.7 2.93333 5.7 3.44C5.7 3.94667 5.58333 4.38333 5.35 4.75C5.11667 5.11 4.78333 5.38667 4.35 5.58C3.91667 5.77333 3.39333 5.87 2.78 5.87H0.6L1.05 5.41V8H0.05ZM4.73 8L2.95 5.46H4.02L5.82 8H4.73ZM1.05 5.51L0.6 5.02H2.75C3.39 5.02 3.87333 4.88333 4.2 4.61C4.53333 4.33 4.7 3.94 4.7 3.44C4.7 2.94 4.53333 2.55333 4.2 2.28C3.87333 2.00667 3.39 1.87 2.75 1.87H0.6L1.05 1.37V5.51ZM8.21563 4.31H11.8256V5.17H8.21563V4.31ZM8.31563 8H7.31563V1H12.2556V1.87H8.31563V8ZM16.7152 8.08C16.1818 8.08 15.6885 7.99333 15.2352 7.82C14.7885 7.64 14.3985 7.39 14.0652 7.07C13.7385 6.74333 13.4818 6.36333 13.2952 5.93C13.1085 5.49667 13.0152 5.02 13.0152 4.5C13.0152 3.98 13.1085 3.50333 13.2952 3.07C13.4818 2.63667 13.7418 2.26 14.0752 1.94C14.4085 1.61333 14.7985 1.36333 15.2452 1.19C15.6985 1.01 16.1918 0.92 16.7252 0.92C17.2652 0.92 17.7618 1.01333 18.2152 1.2C18.6752 1.38 19.0652 1.65 19.3852 2.01L18.7352 2.64C18.4685 2.36 18.1685 2.15333 17.8352 2.02C17.5018 1.88 17.1452 1.81 16.7652 1.81C16.3718 1.81 16.0052 1.87667 15.6652 2.01C15.3318 2.14333 15.0418 2.33 14.7952 2.57C14.5485 2.81 14.3552 3.09667 14.2152 3.43C14.0818 3.75667 14.0152 4.11333 14.0152 4.5C14.0152 4.88667 14.0818 5.24667 14.2152 5.58C14.3552 5.90667 14.5485 6.19 14.7952 6.43C15.0418 6.67 15.3318 6.85667 15.6652 6.99C16.0052 7.12333 16.3718 7.19 16.7652 7.19C17.1452 7.19 17.5018 7.12333 17.8352 6.99C18.1685 6.85 18.4685 6.63667 18.7352 6.35L19.3852 6.98C19.0652 7.34 18.6752 7.61333 18.2152 7.8C17.7618 7.98667 17.2618 8.08 16.7152 8.08Z" fill="#900DD3"/>
</svg>
